<svg width="363" height="165" viewBox="0 0 363 165" fill="none" xmlns="http://www.w3.org/2000/svg">
<g clip-path="url(#clip0_2273_4928)">
<g clip-path="url(#clip1_2273_4928)">
<path d="M60.9015 0H0.210408V0.0467574H0V61.5912H31.117V31.1171H60.9015V0Z" fill="#1C1C1C"/>
<path d="M164.694 0.211081V0H102.554V31.2166H133.329V61.0963H164.742V0.211081H164.694Z" fill="#1C1C1C"/>
<path d="M164.258 102.411H133.141V132.885H103.357V164.014H164.048V163.956H164.258V102.411Z" fill="#1C1C1C"/>
<path d="M31.1287 132.545V102.761H0V163.452H0.0584467V163.662H61.6029V132.545H31.1287Z" fill="#1C1C1C"/>
<path d="M94.4622 71.656H70.7095V95.4088H94.4622V71.656Z" fill="#FF2C65"/>
</g>
<path d="M199.73 44.7514C195.611 44.7514 192.335 43.6282 189.902 41.3818C187.468 39.1043 186.252 35.8595 186.252 31.6476V23.7853C186.252 19.5734 187.468 16.3443 189.902 14.0979C192.335 11.8203 195.611 10.6816 199.73 10.6816C203.848 10.6816 207.124 11.8203 209.558 14.0979C211.991 16.3443 213.208 19.5734 213.208 23.7853V31.6476C213.208 35.8595 211.991 39.1043 209.558 41.3818C207.124 43.6282 203.848 44.7514 199.73 44.7514ZM199.73 39.2291C202.039 39.2291 203.832 38.5583 205.112 37.2167C206.391 35.8751 207.03 34.0812 207.03 31.8348V23.5981C207.03 21.3518 206.391 19.5578 205.112 18.2162C203.832 16.8746 202.039 16.2039 199.73 16.2039C197.452 16.2039 195.658 16.8746 194.348 18.2162C193.069 19.5578 192.429 21.3518 192.429 23.5981V31.8348C192.429 34.0812 193.069 35.8751 194.348 37.2167C195.658 38.5583 197.452 39.2291 199.73 39.2291ZM225.117 44.0962V16.9526H215.569V11.3367H240.841V16.9526H231.294V44.0962H225.117ZM245.282 44.0962V11.3367H266.341V16.9526H251.459V24.7681H265.031V30.384H251.459V38.4803H266.622V44.0962H245.282ZM271.429 44.0962V11.3367H285.656C287.715 11.3367 289.509 11.6955 291.038 12.4131C292.567 13.1307 293.752 14.1447 294.595 15.4551C295.437 16.7654 295.858 18.3098 295.858 20.0882V20.6498C295.858 22.6154 295.39 24.2065 294.454 25.4233C293.518 26.6401 292.364 27.5293 290.991 28.0909V28.9332C292.239 28.9956 293.206 29.4324 293.893 30.2436C294.579 31.0236 294.922 32.0688 294.922 33.3792V44.0962H288.745V34.2684C288.745 33.5196 288.542 32.9112 288.136 32.4432C287.762 31.9752 287.122 31.7412 286.218 31.7412H277.607V44.0962H271.429ZM277.607 26.1253H285.001C286.467 26.1253 287.606 25.7353 288.417 24.9553C289.26 24.1441 289.681 23.0833 289.681 21.773V21.305C289.681 19.9946 289.275 18.9494 288.464 18.1694C287.653 17.3582 286.498 16.9526 285.001 16.9526H277.607V26.1253ZM301.233 44.0962V11.3367H307.41V44.0962H301.233ZM311.56 44.0962L320.171 11.3367H330.935L339.546 44.0962H333.181L331.403 36.8891H319.703L317.924 44.0962H311.56ZM321.154 31.1796H329.952L325.974 15.2211H325.132L321.154 31.1796Z" fill="#1C1C1C"/>
<path d="M199.449 99.9535C195.393 99.9535 192.179 98.8303 189.808 96.584C187.437 94.3064 186.252 91.0617 186.252 86.8497V78.9875C186.252 74.7756 187.437 71.5464 189.808 69.3C192.179 67.0225 195.393 65.8837 199.449 65.8837C203.474 65.8837 206.578 66.9913 208.762 69.2064C210.977 71.3904 212.085 74.4012 212.085 78.2387V78.5195H206.001V78.0515C206.001 76.1171 205.455 74.526 204.363 73.278C203.302 72.03 201.664 71.406 199.449 71.406C197.265 71.406 195.549 72.0768 194.301 73.4184C193.053 74.76 192.429 76.5851 192.429 78.8939V86.9433C192.429 89.2209 193.053 91.0461 194.301 92.4189C195.549 93.7604 197.265 94.4312 199.449 94.4312C201.664 94.4312 203.302 93.8072 204.363 92.5593C205.455 91.2801 206.001 89.6889 206.001 87.7857V86.9433H212.085V87.5985C212.085 91.4361 210.977 94.4624 208.762 96.6776C206.578 98.8615 203.474 99.9535 199.449 99.9535ZM224.953 99.2983V88.0197L213.815 66.5389H220.695L227.621 80.5787H228.463L235.39 66.5389H242.269L231.131 88.0197V99.2983H224.953ZM245.031 99.2983V93.8696H249.337V71.9676H245.031V66.5389H261.879C263.876 66.5389 265.607 66.8821 267.074 67.5685C268.571 68.2237 269.726 69.1752 270.537 70.4232C271.379 71.64 271.801 73.1064 271.801 74.8224V75.2903C271.801 76.7879 271.52 78.0203 270.958 78.9875C270.397 79.9235 269.726 80.6567 268.946 81.187C268.197 81.6862 267.479 82.045 266.793 82.2634V83.1058C267.479 83.293 268.228 83.6518 269.039 84.1822C269.851 84.6814 270.537 85.4146 271.099 86.3818C271.691 87.3489 271.988 88.6125 271.988 90.1725V90.6405C271.988 92.4501 271.567 94.01 270.724 95.3204C269.882 96.5996 268.712 97.5824 267.214 98.2688C265.748 98.9551 264.032 99.2983 262.066 99.2983H245.031ZM255.514 93.6824H261.318C262.659 93.6824 263.735 93.3548 264.547 92.6997C265.389 92.0445 265.81 91.1085 265.81 89.8917V89.4237C265.81 88.2069 265.405 87.2709 264.593 86.6158C263.782 85.9606 262.69 85.633 261.318 85.633H255.514V93.6824ZM255.514 80.0171H261.224C262.503 80.0171 263.548 79.6895 264.359 79.0343C265.202 78.3791 265.623 77.4743 265.623 76.3199V75.8519C265.623 74.6664 265.217 73.7616 264.406 73.1376C263.595 72.4824 262.534 72.1548 261.224 72.1548H255.514V80.0171ZM277.279 99.2983V66.5389H298.339V72.1548H283.456V79.9703H297.028V85.5862H283.456V93.6824H298.619V99.2983H277.279ZM303.426 99.2983V66.5389H317.653C319.712 66.5389 321.506 66.8977 323.035 67.6153C324.564 68.3329 325.749 69.3468 326.592 70.6572C327.434 71.9676 327.855 73.512 327.855 75.2903V75.8519C327.855 77.8175 327.387 79.4087 326.451 80.6255C325.515 81.8422 324.361 82.7314 322.988 83.293V84.1354C324.236 84.1978 325.203 84.6346 325.89 85.4458C326.576 86.2258 326.919 87.2709 326.919 88.5813V99.2983H320.742V89.4705C320.742 88.7217 320.539 88.1133 320.134 87.6453C319.759 87.1773 319.12 86.9433 318.215 86.9433H309.604V99.2983H303.426ZM309.604 81.3274H316.998C318.464 81.3274 319.603 80.9374 320.414 80.1575C321.257 79.3463 321.678 78.2855 321.678 76.9751V76.5071C321.678 75.1967 321.272 74.1516 320.461 73.3716C319.65 72.5604 318.496 72.1548 316.998 72.1548H309.604V81.3274Z" fill="#1C1C1C"/>
<path d="M198.373 155.37C195.845 155.37 193.615 154.918 191.68 154.013C189.746 153.108 188.233 151.813 187.141 150.129C186.049 148.444 185.503 146.416 185.503 144.045V142.734H191.587V144.045C191.587 146.01 192.195 147.492 193.412 148.491C194.629 149.458 196.282 149.941 198.373 149.941C200.494 149.941 202.07 149.52 203.099 148.678C204.16 147.835 204.69 146.759 204.69 145.449C204.69 144.544 204.425 143.811 203.895 143.249C203.396 142.687 202.647 142.235 201.649 141.892C200.681 141.517 199.496 141.174 198.092 140.862L197.015 140.628C194.769 140.129 192.835 139.505 191.212 138.756C189.621 137.976 188.389 136.962 187.515 135.714C186.673 134.466 186.252 132.844 186.252 130.847C186.252 128.85 186.72 127.15 187.656 125.746C188.623 124.311 189.964 123.219 191.68 122.47C193.427 121.69 195.471 121.3 197.811 121.3C200.151 121.3 202.226 121.706 204.035 122.517C205.876 123.297 207.311 124.483 208.341 126.074C209.402 127.634 209.932 129.599 209.932 131.97V133.374H203.848V131.97C203.848 130.722 203.598 129.724 203.099 128.975C202.631 128.195 201.945 127.634 201.04 127.291C200.135 126.916 199.059 126.729 197.811 126.729C195.939 126.729 194.551 127.088 193.646 127.805C192.772 128.492 192.335 129.443 192.335 130.66C192.335 131.471 192.538 132.158 192.944 132.719C193.381 133.281 194.02 133.749 194.863 134.123C195.705 134.498 196.781 134.825 198.092 135.106L199.168 135.34C201.508 135.839 203.536 136.479 205.252 137.259C206.999 138.039 208.356 139.068 209.324 140.347C210.291 141.627 210.774 143.265 210.774 145.261C210.774 147.258 210.26 149.021 209.23 150.55C208.232 152.047 206.796 153.233 204.924 154.106C203.084 154.949 200.9 155.37 198.373 155.37ZM228.064 155.37C224.008 155.37 220.795 154.247 218.423 152C216.052 149.723 214.867 146.478 214.867 142.266V134.404C214.867 130.192 216.052 126.963 218.423 124.717C220.795 122.439 224.008 121.3 228.064 121.3C232.089 121.3 235.193 122.408 237.377 124.623C239.592 126.807 240.7 129.818 240.7 133.655V133.936H234.616V133.468C234.616 131.534 234.07 129.942 232.978 128.694C231.917 127.447 230.279 126.823 228.064 126.823C225.88 126.823 224.164 127.493 222.916 128.835C221.668 130.176 221.044 132.002 221.044 134.31V142.36C221.044 144.637 221.668 146.463 222.916 147.835C224.164 149.177 225.88 149.848 228.064 149.848C230.279 149.848 231.917 149.224 232.978 147.976C234.07 146.697 234.616 145.105 234.616 143.202V142.36H240.7V143.015C240.7 146.853 239.592 149.879 237.377 152.094C235.193 154.278 232.089 155.37 228.064 155.37ZM245.967 154.715V121.955H252.145V135.48H264.313V121.955H270.49V154.715H264.313V141.096H252.145V154.715H245.967ZM289.643 155.37C285.524 155.37 282.248 154.247 279.815 152C277.381 149.723 276.165 146.478 276.165 142.266V134.404C276.165 130.192 277.381 126.963 279.815 124.717C282.248 122.439 285.524 121.3 289.643 121.3C293.761 121.3 297.037 122.439 299.471 124.717C301.904 126.963 303.121 130.192 303.121 134.404V142.266C303.121 146.478 301.904 149.723 299.471 152C297.037 154.247 293.761 155.37 289.643 155.37ZM289.643 149.848C291.952 149.848 293.745 149.177 295.025 147.835C296.304 146.494 296.943 144.7 296.943 142.453V134.217C296.943 131.97 296.304 130.176 295.025 128.835C293.745 127.493 291.952 126.823 289.643 126.823C287.365 126.823 285.571 127.493 284.261 128.835C282.982 130.176 282.342 131.97 282.342 134.217V142.453C282.342 144.7 282.982 146.494 284.261 147.835C285.571 149.177 287.365 149.848 289.643 149.848ZM321.503 155.37C317.384 155.37 314.108 154.247 311.675 152C309.241 149.723 308.025 146.478 308.025 142.266V134.404C308.025 130.192 309.241 126.963 311.675 124.717C314.108 122.439 317.384 121.3 321.503 121.3C325.621 121.3 328.897 122.439 331.331 124.717C333.764 126.963 334.981 130.192 334.981 134.404V142.266C334.981 146.478 333.764 149.723 331.331 152C328.897 154.247 325.621 155.37 321.503 155.37ZM321.503 149.848C323.812 149.848 325.606 149.177 326.885 147.835C328.164 146.494 328.803 144.7 328.803 142.453V134.217C328.803 131.97 328.164 130.176 326.885 128.835C325.606 127.493 323.812 126.823 321.503 126.823C319.225 126.823 317.431 127.493 316.121 128.835C314.842 130.176 314.202 131.97 314.202 134.217V142.453C314.202 144.7 314.842 146.494 316.121 147.835C317.431 149.177 319.225 149.848 321.503 149.848ZM340.633 154.715V121.955H346.811V149.099H361.787V154.715H340.633Z" fill="#1C1C1C"/>
</g>
<defs>
<clipPath id="clip0_2273_4928">
<rect width="363" height="164.013" fill="white"/>
</clipPath>
<clipPath id="clip1_2273_4928">
<rect width="164.609" height="164.013" fill="white"/>
</clipPath>
</defs>
</svg>
